<?xml version="1.0" encoding="UTF-8"?>
<svg id="Layer_2" data-name="Layer 2" xmlns="http://www.w3.org/2000/svg" viewBox="0 0 76.26 70.77">
  <defs>
    <style>
      .cls-1 {
        fill: #4d4d4d;
      }

      .cls-2 {
        fill: #00a99d;
      }

      .cls-3 {
        fill: #fbb03b;
      }
    </style>
  </defs>
  <g id="Layer_1-2" data-name="Layer 1">
    <path class="cls-2" d="M26.07,38.34v2.4c0,.22,1.63.87,1.9.83.33-.05,1.33-1.07,1.7-1.38.16-.13.05-.4.34-.3.31.55,2.4,1.86,2.24,2.38-.03.11-1.38,1.12-1.51,1.76-.1.46.78,1.44.59,2.05h2.63c.01,1.3.04,2.59-.15,3.87h-2.25c-.12.36-.79,1.9-.8,2.09,0,.65,1.52,1.84,1.27,2.4-.06.14-1.91,2.12-2.05,2.16-.65.17-1.56-1.7-2.02-1.82-.28-.08-1.93.8-2.02,1.02-.26.63-.16,1.69-.19,2.37h-3.41v-2.63s-.6-.04-.86-.15c-.32-.13-1.02-.64-1.21-.61-.52.1-1.57,2.09-2.27,1.76-.29-.14-2.13-2.16-2.18-2.49.14-.55,1.58-1.35,1.69-1.73.19-.66-.63-1.45-.44-2.21l-2.63-.16c-.09-.22.15-.46.15-.54v-3.1c0-.41,1.99.34,2.56-.39.13-.17.7-1.61.67-1.76-.05-.26-1.49-1.63-1.49-1.88.79-.82,1.7-1.47,2.37-2.4.18,0,1.13,1.56,1.58,1.68.25.06,1.78-.44,2.06-.67v-2.56h3.72ZM28.8,48.35c0-2.54-2.06-4.6-4.6-4.6s-4.6,2.06-4.6,4.6,2.06,4.6,4.6,4.6,4.6-2.06,4.6-4.6Z"/>
    <g>
      <path class="cls-1" d="M8.02,43.6c3.09,10.39,11.93,18.55,22.49,20.99l.11.15c-.45.92.2,1.91.29,2.71.02.2-.03.2-.17.32-11.95-2.85-22.19-11.81-25.65-23.71,1.03.15,1.95-.35,2.94-.46Z"/>
      <path class="cls-1" d="M45.06,67.62c.11-1,.27-2.06.46-3.03,10.85-2.06,19.69-10.31,22.63-20.93.28-.2,1.15.28,1.51.36.64.14,1.56-.28,1.33.62-.96,3.74-4.52,9.38-7.03,12.35-4.77,5.66-11.68,9.19-18.9,10.62Z"/>
      <path class="cls-1" d="M43.75,65.01c0,3.18-2.58,5.76-5.76,5.76s-5.76-2.58-5.76-5.76,2.58-5.76,5.76-5.76,5.76,2.58,5.76,5.76ZM37.43,62.07c-2.91.5-3.07,5.12.03,5.78,4.29.91,4.41-6.54-.03-5.78Z"/>
      <g>
        <path class="cls-1" d="M45.37,3.92c10.65,1.54,19.64,9.43,23.89,19.11.41.93,1.8,4.33,1.84,5.14.02.32,0,.2-.23.23-.81.11-1.71-.01-2.56.31-1.87-6.93-6.36-13.63-12.35-17.64-3.08-2.06-6.85-3.83-10.59-4.06v-3.1Z"/>
        <path class="cls-1" d="M30.65,3.92c-.11.95-.31,1.93-.04,2.87l-.11.15c-11.07,1.9-20.22,11.23-22.64,22.08-.83-.49-1.88-.66-2.79-.31.74-4.16,2.86-8.26,5.3-11.67,4.85-6.8,12-11.6,20.27-13.12Z"/>
        <path class="cls-1" d="M43.76,5.74c0,3.17-2.57,5.74-5.74,5.74s-5.74-2.57-5.74-5.74,2.57-5.74,5.74-5.74,5.74,2.57,5.74,5.74ZM40.91,5.84c0-1.6-1.3-2.9-2.9-2.9s-2.9,1.3-2.9,2.9,1.3,2.9,2.9,2.9,2.9-1.3,2.9-2.9Z"/>
      </g>
      <path class="cls-1" d="M76.26,36.25c0,3.15-2.55,5.7-5.7,5.7s-5.7-2.55-5.7-5.7,2.55-5.7,5.7-5.7,5.7,2.55,5.7,5.7ZM69.66,33.56c-1.76.36-2.31,3.07-1.35,4.38,1.4,1.91,4.57,1.4,4.95-.94s-1.23-3.92-3.6-3.44Z"/>
      <path class="cls-1" d="M11.35,36.23c0,3.13-2.54,5.68-5.68,5.68s-5.68-2.54-5.68-5.68,2.54-5.68,5.68-5.68,5.68,2.54,5.68,5.68ZM7.66,38.27c1.32-1.32.74-4.45-1.28-4.74-5.21-.76-3.97,6.95.35,5.29.22-.08.77-.39.92-.55Z"/>
    </g>
    <g>
      <g>
        <path class="cls-2" d="M47.52,27.79c.45,0,1.05,1.24,1.19,1.63,1.17,3.22-1.64,9.73-3.85,12.16-1.99,2.19-6.04,3.67-7.45.04-1.2-3.09,1.6-5.79,4-7.26,1.12-.68,2.13-1.02,3.08-2.01,1.15-1.2,1.61-2.49,2.43-3.85.09-.15.43-.71.6-.71Z"/>
        <path class="cls-2" d="M55.26,42.6c.08.15.24.52.3.69.27.74.37,1.07-.57,1.01-1.21-.07-2.4-.46-3.67-.48-1.9-.04-2.63.49-4.28,1.15-2.73,1.1-6.82,1.87-8.58-1.21.03-.14.04-.04.1,0,1.21.62,2.16.64,3.44.23,2.65-.85,4.28-3.24,5.48-5.63,1.69.38,3.39.96,4.91,1.79,1.03.56,2.3,1.42,2.87,2.47Z"/>
        <path class="cls-2" d="M38.42,44.41c0,.08-.05.08-.09.11-.11.09-1.1.55-1.19.54s-.17-.05-.24-.09l-1.18-2.34c-.19-.58.91-.75,1.29-1,.06.44.4.85.59,1.23.26.52.4,1.13.83,1.55Z"/>
      </g>
      <g>
        <path class="cls-3" d="M62.63,33.5s-.02-.12-.04-.17c-.67-1.22-1.26-2.51-1.86-3.76-.2-.42-.93-1.28.02-1.26.89.02,3.3.37,3.86,1.06.51.63-.21,2.02-.53,2.64-.17.34-.73,1.38-.97,1.6-.18.17-.36.08-.48-.11Z"/>
        <path class="cls-3" d="M52.62,33.77c.21.01.35.1.47.26.18.24.85,1.62.96,1.93.06.18.11.36,0,.54-.08.14-1.39.79-1.56.77-.19-.02-.26-.09-.37-.23-.16-.21-.95-1.81-1.03-2.07-.05-.16-.07-.3.04-.45.12-.17,1.28-.76,1.48-.75Z"/>
        <path class="cls-3" d="M54.93,32.71c.21.02.35.1.47.26.17.23.79,1.5.89,1.79.13.37.09.52-.23.76-.12.08-.81.46-.95.51-.28.12-.48.05-.66-.19s-.88-1.68-.97-1.97c-.08-.26-.06-.45.16-.63.11-.09,1.17-.54,1.28-.53Z"/>
        <path class="cls-3" d="M51.19,30.87c.21.02.35.1.47.26s.76,1.45.82,1.65c.05.16.06.32-.03.47-.08.14-1.4.79-1.56.77-.19-.02-.26-.09-.37-.23-.15-.2-.77-1.47-.85-1.72-.06-.19-.08-.28.02-.48.08-.16,1.33-.74,1.49-.72Z"/>
        <path class="cls-3" d="M54.44,37.04c.13.05.21.16.28.27.15.22.71,1.34.78,1.59.07.22.05.39-.11.57-.09.1-1.01.62-1.17.67-.29.09-.47.05-.65-.19-.14-.18-.79-1.5-.86-1.72-.08-.27-.04-.41.19-.57.11-.08,1.13-.59,1.24-.61.09-.02.2-.02.29.01Z"/>
        <path class="cls-3" d="M53.64,29.92c.16.03.31.17.4.3.14.2.63,1.2.72,1.45.13.37.09.51-.24.72-.11.07-.89.42-1.02.46-.27.08-.45.01-.62-.21-.15-.2-.74-1.41-.82-1.65-.09-.27-.05-.46.21-.61.14-.08,1.25-.47,1.37-.45Z"/>
        <path class="cls-3" d="M56.47,35.82c.2,0,.36.11.47.26.14.19.64,1.21.72,1.45.06.19.11.36.01.55-.08.17-1.24.88-1.42.86s-.26-.09-.37-.23c-.13-.17-.76-1.44-.82-1.65-.05-.15-.06-.27,0-.41.07-.15,1.24-.83,1.4-.82Z"/>
        <path class="cls-3" d="M50.33,34.95c.2.02.31.09.42.25.18.24.85,1.62.96,1.93.05.15.11.33.03.48-.14.27-1.38.88-1.61.39-.15-.5-.99-1.67-1.01-2.12,0-.07,0-.16.02-.23.07-.21.97-.72,1.2-.7Z"/>
        <path class="cls-3" d="M57.02,31.81c.18.02.34.09.45.23s.74,1.42.81,1.62c.09.27.1.43-.11.65-.1.1-.9.56-1.01.56-.17,0-.35-.07-.45-.21-.12-.42-.97-1.66-.96-2.01,0-.18.06-.28.2-.39.11-.09.96-.44,1.07-.43Z"/>
        <path class="cls-3" d="M55.78,29.21c.22.04.33.14.45.31.14.19.58,1.08.65,1.31.08.25.08.4-.14.58-.09.07-.98.44-1.08.43-.18-.01-.34-.09-.45-.23-.1-.12-.72-1.38-.77-1.55-.05-.16-.07-.29.05-.43.13-.15,1.1-.46,1.29-.43Z"/>
        <path class="cls-3" d="M58.57,34.69c.15.02.25.13.34.25.13.17.56,1.06.63,1.28s.1.39,0,.6c-.05.1-.77.64-.9.7-.26.13-.44.06-.6-.17-.14-.19-.66-1.25-.73-1.48-.06-.19-.08-.28.02-.48.09-.18,1.05-.72,1.25-.69Z"/>
        <path class="cls-3" d="M58.87,31.11c.17.03.24.06.35.19.09.11.76,1.5.76,1.6,0,.44-.8.96-1.16.75-.23-.14-.8-1.56-.96-1.89-.09-.39.75-.7,1.02-.65Z"/>
        <path class="cls-3" d="M60.23,33.7c.13.03.21.12.29.23.09.12.62,1.23.61,1.33-.01.5-.81,1.3-1.23.74-.11-.15-.58-1.1-.63-1.28-.05-.15-.07-.34.01-.49.11-.19.73-.57.95-.53Z"/>
        <path class="cls-3" d="M57.55,28.72c.17.02.36.09.48.22.08.09.68,1.33.68,1.43,0,.54-1.07.61-1.39.38-.11-.08-.74-1.44-.71-1.58.07-.29.69-.47.94-.44Z"/>
        <path class="cls-3" d="M48.63,36.04c.07.02.11.11.14.17.19.29.86,1.61.95,1.93.14.46-.36.28-.67.2-.25-.06-1.12-.32-1.2-.52-.14-.34.5-1.29.54-1.68.03-.08.16-.13.24-.1Z"/>
        <path class="cls-3" d="M60.57,30.66s.08.01.13.04c.12.06.64,1.1.63,1.24,0,.32-.5.94-.87.73-.21-.12-.85-1.41-.84-1.65.03-.43.63-.44.95-.36Z"/>
        <path class="cls-3" d="M61.88,34.92c-.21.09-.34.01-.47-.15-.1-.12-.52-.95-.55-1.1-.17-.66.7-.97,1.05-.65.04.04.53,1.03.54,1.11.04.27-.34.69-.56.79Z"/>
        <path class="cls-3" d="M59.39,28.36c.15.01.21.07.3.18.06.07.57,1.1.59,1.17.12.59-.83.6-1.16.36-.08-.06-.54-.97-.57-1.09-.07-.29.02-.44.3-.52.05-.02.53-.1.56-.1Z"/>
        <path class="cls-3" d="M49.28,34.96c-.08.04-.53.32-.57.23l.6-2.61c.07.01.13.05.18.1.15.14.71,1.35.69,1.55-.05.35-.59.56-.89.72Z"/>
        <path class="cls-3" d="M52.93,39.89l-2.33-1.06c-.06-.02-.08-.06-.03-.11s1.13-.53,1.19-.54c.24-.04.45.06.6.25.06.09.58,1.13.6,1.21.02.1.02.16-.03.25Z"/>
      </g>
    </g>
    <g>
      <path class="cls-3" d="M36.68,27.7s-2.84.65-4.08,3.04c0-.3.01-.6.02-.91.3-.49.91-1.2,2.16-1.69,2.05-.81,2.03-2.96,1.73-4.07,0,0-2.68.61-3.85,2.87,0-.31,0-.62,0-.92.27-.46.85-1.14,2.03-1.6,1.93-.76,1.9-2.77,1.63-3.82,0,0-2.57.58-3.65,2.76,0-.45,0-.87,0-1.27.23-.42.76-1.1,1.91-1.55,1.77-.7,1.74-2.54,1.49-3.5,0,0-2.51.57-3.43,2.73-.02-.7-.05-1.1-.09-1.1s-.09.45-.14,1.21c-.79-2.29-3.35-2.99-3.35-2.99-.3.95-.4,2.79,1.34,3.56,1.23.55,1.71,1.33,1.89,1.74-.02.4-.04.83-.06,1.28-.94-2.31-3.57-3.03-3.57-3.03-.32,1.03-.43,3.04,1.46,3.89,1.25.56,1.79,1.33,2.02,1.8-.01.31-.02.62-.03.94-1.03-2.41-3.77-3.16-3.77-3.16-.35,1.1-.46,3.24,1.55,4.14,1.31.59,1.89,1.4,2.14,1.9,0,.31-.01.62-.02.93-1.1-2.55-4-3.35-4-3.35-.37,1.17-.49,3.44,1.65,4.4,1.45.65,2.06,1.55,2.3,2.07,0,.76-.02,1.47-.02,2.13-1.74-1.52-3.53-.77-3.53-.77,2.08.22,3.18,2.53,3.57,3.57.03.58.07.91.13.91.18,0,.33-2.58.43-5.94.3-.52.96-1.31,2.32-1.85,2.18-.86,2.15-3.14,1.84-4.32Z"/>
      <path class="cls-3" d="M34.11,14.75c.03-1.37-1.2-3.89-1.2-3.89,0,0-1.71,1.99-1.75,3.67-.04,1.68,1.36,3.53,1.36,3.53,0,0,1.56-1.97,1.59-3.3Z"/>
    </g>
  </g>
</svg>